# xmcd CD database file
#
# Track frame offsets:
#	150
#	15422
#	28272
#	41230
#	54212
#	65367
#	81515
#	94477
#	110112
#	120315
#	136692
#	151660
#	167127
#	181142
#	195717
#	210637
#	225112
#	240130
#	254250
#	268247
#	283870
#	297902
#	317790
#
# Disc length: 4373 seconds
#
# Revision: 0
# Processed by: cddbd v1.5.1PL0 Copyright (c) Steve Scherf et al.
# Submitted via: CDex 1.51
#
DISCID=3e111317
DTITLE=グレン・ミラー - エターナルベスト
DYEAR=1998
DGENRE=Jazz
TTITLE0=ムーンライト・セレナーデ
TTITLE1=茶色の小瓶
TTITLE2=星へのきざはし
TTITLE3=	ムーン・ラヴ
TTITLE4=	虹の彼方へ
TTITLE5=イン・ザ・ムード
TTITLE6=星に願いを
TTITLE7=タキシード・ジャンクション
TTITLE8=ダニー・ボーイ
TTITLE9=バークリー・スクエアのナイチンゲール
TTITLE10=パーフィディア
TTITLE11=チャタヌーガ・チュー・チュー
TTITLE12=エルマーズ・チューン
TTITLE13=	真珠の首飾り
TTITLE14=ムーンライト・カクテル
TTITLE15=二人の木陰
TTITLE16=アメリカン・パトロール
TTITLE17=スイート・エロイーズ
TTITLE18=アット・ラスト
TTITLE19=セレナーデ・イン・ブルー
TTITLE20=	ジューク・ボックス・サタデイ・ナイト
TTITLE21=セントルイス・ブルース・マーチ
TTITLE22=スターダスト
EXTD=YEAR: 1998
EXTT0=
EXTT1=
EXTT2=
EXTT3=
EXTT4=
EXTT5=
EXTT6=
EXTT7=
EXTT8=
EXTT9=
EXTT10=
EXTT11=
EXTT12=
EXTT13=
EXTT14=
EXTT15=
EXTT16=
EXTT17=
EXTT18=
EXTT19=
EXTT20=
EXTT21=
EXTT22=
PLAYORDER=
